<svg xmlns="http://www.w3.org/2000/svg" xmlns:xlink="http://www.w3.org/1999/xlink" version="1.1" x="0px" y="0px" viewBox="0 0 100 100" style="enable-background:new 0 0 100 100;" xml:space="preserve"><text x="0" y="140" font-family="Montserrat" font-size="10px" fill="black">strapped.sh</text><path d="M83.8,42.8c0.3,0,0.6-0.3,0.6-0.6v-0.3h1c0.3,0,0.6-0.3,0.6-0.6v-2.3c0-0.3-0.3-0.6-0.6-0.6h-1V38c0-0.3-0.3-0.6-0.6-0.6H82  v-0.3c0-0.3-0.3-0.6-0.6-0.6H61.7c-0.3,0-0.6,0.3-0.6,0.6v0.2h-0.8c0-1-0.9-1.8-1.8-1.8h-1.5c-0.7,0-1.3,0.4-1.6,0.9H43.1  c-0.5-1.2-1.6-2-2.9-2c-1.1,0-2,0.5-2.6,1.4h-2.3c-2.9,0-5.3-2.4-5.3-5.3v-2.7h1.5v0.9c0,0.3,0.3,0.6,0.6,0.6h3.1  c0.3,0,0.6-0.3,0.6-0.6v-0.3h3.7c0.3,0,0.6-0.3,0.6-0.6V27h1.2c0.3,1.5,1.6,2.7,3.2,2.7h30.8c1.9,0,3.6-0.8,5-2.1  c1.3-1.4,2-3.2,1.9-5.1c-0.2-3.7-3.3-6.5-7-6.5H62.2h-3H44.1c-1.4,0-2.6,1-2.9,2.4H40v-0.5c0-0.3-0.3-0.6-0.6-0.6h-3.7V17  c0-0.3-0.3-0.6-0.6-0.6H32c-0.3,0-0.6,0.3-0.6,0.6v0.9H20.9c-0.3,0-0.6,0.3-0.6,0.6v8.9v10c0,1.5-1.2,2.7-2.7,2.7H15  c-0.3,0-0.6,0.3-0.6,0.6v0.1h-1c-1.1,0-2,0.9-2,2v4.2c0,1.1,0.9,2,2,2h1v0.3c0,0.3,0.3,0.6,0.6,0.6H24c0.3,0,0.6-0.3,0.6-0.6v-0.4  h2.2c0.3,0.6,0.9,1,1.6,1c0.7,0,1.4-0.5,1.6-1.1h4.8c1.4,0,2.6,1,3,2.3c0.1,0.6,0.1,1.2-0.1,1.7l-11,31.3c-0.1,0.2,0,0.4,0.1,0.5  c0.1,0.2,0.3,0.3,0.5,0.3h22.8c0.2,0,0.4-0.1,0.5-0.3c0.1-0.2,0.1-0.4,0-0.6l-3.5-6l7.3-21.5h7.2c0.3,0,0.6-0.3,0.6-0.6v-6.9h15.3  c1.8,0,3.2-1.4,3.2-3.2v-2h0.7c0.3,0,0.6-0.3,0.6-0.6v-0.3H83.8z M84.8,39.5v1.1h-0.4v-1.1H84.8z M83.2,38.6v0.3v2.3v0.3H82v-3H83.2  z M61.1,42.4h-0.8v-3.9h0.8V42.4z M56.9,36.8h1.5c0.4,0,0.7,0.3,0.7,0.7V38v4.5h-2.8v-5C56.3,37.1,56.6,36.8,56.9,36.8z M43.4,37.7  h11.7v4.7H43.4V37.7L43.4,37.7z M40.2,35.8c1.1,0,2,0.9,2,2v4.7h-4v-4.7C38.2,36.7,39.1,35.8,40.2,35.8z M80.8,22.6  c0.1,1.6-0.5,3-1.6,4.2c-1.1,1.1-2.5,1.8-4.1,1.8H62.8V17.2H75C78.1,17.2,80.7,19.6,80.8,22.6z M61.6,17.2v10.9h-1.8V17.2H61.6z   M41.7,19.6c0.3,0,0.6-0.3,0.6-0.6c0-1,0.8-1.8,1.8-1.8h14.5v11.3H44.4c-1.1,0-2.1-0.9-2.1-2.1c0-0.3-0.3-0.6-0.6-0.6H40v-6.3H41.7z   M38.8,18.5V19v7.5v0.8h-3.1v-8.8H38.8z M32.6,17.6h1.9v0.3v10v0.3h-1.9v-0.9v-8.9V17.6z M21.5,19h10v7.7h-2.1h-7.8V19z M13.3,47.6  c-0.4,0-0.8-0.4-0.8-0.8v-4.2c0-0.4,0.4-0.8,0.8-0.8h1v5.8H13.3z M23.4,43v5.5h-7.9v-0.3v-7v-0.1h2c2.1,0,3.9-1.7,3.9-3.9v-9.4h7.2  v2.7c0,3.6,2.9,6.5,6.5,6.5H37v0.6v4.7h-7.4h-2.2H24C23.7,42.4,23.4,42.7,23.4,43z M24.6,43.6h2.1v3.8h-2.1V43.6z M29,48  c0,0.3-0.2,0.5-0.5,0.5c-0.3,0-0.5-0.2-0.5-0.5v-4.3h1V48z M45.9,78.1l3.1,5.4H28.2L38.8,53c0.3-0.8,0.3-1.6,0.1-2.4  c-0.5-1.9-2.2-3.2-4.1-3.2h-4.7v-3.7h7.4h5.2h12.9h4h1.4v4h-4c-2,0-3.6,1.6-3.6,3.6v4.3l-7.5,22C45.8,77.8,45.8,78,45.9,78.1z   M61.1,55.1h-6.5v-2.4h3v1c0,0.3,0.3,0.6,0.6,0.6c0.3,0,0.6-0.3,0.6-0.6v-3.1c0-0.3-0.3-0.6-0.6-0.6c-0.3,0-0.6,0.3-0.6,0.6v1h-3  v-0.2c0-1.4,1.1-2.5,2.5-2.5h4V55.1z M79.5,45.6c0,1.1-0.9,2-2,2H62.3v-4h1.1v2.4c0,0.3,0.3,0.6,0.6,0.6c0.3,0,0.6-0.3,0.6-0.6v-2.4  h1v2.4c0,0.3,0.3,0.6,0.6,0.6s0.6-0.3,0.6-0.6v-2.4h1v2.4c0,0.3,0.3,0.6,0.6,0.6s0.6-0.3,0.6-0.6v-2.4h1v2.4c0,0.3,0.3,0.6,0.6,0.6  s0.6-0.3,0.6-0.6v-2.4h1v2.4c0,0.3,0.3,0.6,0.6,0.6s0.6-0.3,0.6-0.6v-2.4h1l0.1,2.4c0,0.3,0.3,0.6,0.6,0.6c0,0,0,0,0,0  c0.3,0,0.6-0.3,0.6-0.6l-0.1-2.4h1l0.1,2.4c0,0.3,0.3,0.6,0.6,0.6c0,0,0,0,0,0c0.3,0,0.6-0.3,0.6-0.6l-0.1-2.4h1.7V45.6z M80.8,42.4  h-0.7H62.3V38v-0.2h18.6V38v4.2V42.4z M79.6,40.1c0,0.3-0.3,0.6-0.6,0.6H64c-0.3,0-0.6-0.3-0.6-0.6s0.3-0.6,0.6-0.6h15  C79.3,39.5,79.6,39.8,79.6,40.1z M51.1,54.8c-0.1-0.2-0.3-0.3-0.5-0.3l-9.4,0c0,0,0,0,0,0c-0.3,0-0.5,0.2-0.6,0.4L33.7,75  c-0.1,0.2,0,0.4,0.1,0.5c0.1,0.2,0.3,0.3,0.5,0.3l9.4,0c0,0,0,0,0,0c0.3,0,0.5-0.2,0.6-0.4l6.9-20.1C51.2,55.1,51.2,54.9,51.1,54.8z   M43.3,74.6l-8.1,0l6.5-18.9l8.1,0L43.3,74.6z M84.7,44.4c-0.1,0.1-0.1,0.2-0.2,0.3l-0.1,0.1c-0.1,0.2-0.2,0.4-0.4,0.6  c-0.1,0.2-0.2,0.4-0.3,0.6c-0.1,0.3-0.3,0.6-0.3,0.8c-0.1,0.2-0.1,0.4-0.1,0.7c0,0.4,0.1,0.7,0.4,1c0.2,0.3,0.4,0.5,0.7,0.6  c0.3,0.2,0.7,0.3,1.1,0.3c0,0,0,0,0,0c0,0,0.1,0,0.1,0c0.1,0,0.2,0,0.3,0c0.3-0.1,0.5-0.2,0.8-0.4c0.2-0.1,0.4-0.3,0.5-0.5  c0.2-0.3,0.3-0.6,0.3-0.9c0-0.2,0-0.5,0-0.7c0-0.2-0.1-0.4-0.2-0.6c-0.1-0.3-0.2-0.5-0.4-0.8c-0.1-0.2-0.2-0.4-0.3-0.5  c-0.1-0.2-0.3-0.5-0.4-0.7C86,44.1,85.7,44,85.4,44C85.1,44,84.9,44.1,84.7,44.4z M85.8,46.2c0.1,0.3,0.2,0.5,0.3,0.7  c0.1,0.1,0.1,0.3,0.1,0.4c0,0.1,0,0.1,0,0.2c0,0.1-0.1,0.3-0.1,0.4C86.1,48,86.1,48,86,48.1c-0.1,0.1-0.2,0.1-0.3,0.2  c-0.1,0-0.1,0-0.2,0l0,0c-0.2,0-0.3,0-0.5-0.1c-0.1-0.1-0.2-0.2-0.3-0.3c-0.1-0.1-0.1-0.3-0.2-0.5c0-0.1,0-0.2,0.1-0.3  c0.1-0.2,0.1-0.4,0.3-0.6c0.1-0.2,0.2-0.4,0.3-0.5c0.1-0.2,0.2-0.4,0.3-0.5c0,0.1,0.1,0.2,0.1,0.2C85.7,45.8,85.8,46,85.8,46.2z   M87.3,54c-0.1-0.3-0.2-0.5-0.4-0.8c-0.1-0.2-0.2-0.4-0.3-0.5c-0.1-0.2-0.3-0.5-0.4-0.7c-0.2-0.3-0.4-0.4-0.7-0.4  c-0.3,0-0.6,0.1-0.7,0.4c-0.1,0.1-0.1,0.2-0.2,0.3l-0.1,0.1c-0.1,0.2-0.2,0.4-0.4,0.6c-0.1,0.2-0.2,0.4-0.3,0.6  c-0.1,0.3-0.3,0.6-0.3,0.8c-0.1,0.2-0.1,0.4-0.1,0.7c0,0.4,0.1,0.7,0.4,1c0.2,0.3,0.4,0.5,0.7,0.6c0.3,0.2,0.7,0.3,1.1,0.3  c0,0,0,0,0,0c0,0,0.1,0,0.1,0l0,0c0.1,0,0.2,0,0.3,0c0.3-0.1,0.5-0.2,0.8-0.4c0.2-0.1,0.4-0.3,0.5-0.5c0.2-0.3,0.3-0.6,0.3-0.9  c0-0.3,0-0.5,0-0.7C87.4,54.4,87.4,54.2,87.3,54z M86.3,55.1c0,0.1-0.1,0.3-0.1,0.4c-0.1,0.1-0.1,0.2-0.2,0.2  c-0.1,0.1-0.2,0.1-0.3,0.2c-0.1,0-0.1,0-0.2,0l0,0c-0.2,0-0.3,0-0.5-0.1c-0.1-0.1-0.2-0.2-0.3-0.3c-0.1-0.1-0.1-0.3-0.2-0.5  c0-0.1,0-0.2,0.1-0.3c0.1-0.2,0.1-0.4,0.3-0.6c0.1-0.2,0.2-0.4,0.3-0.5c0.1-0.2,0.2-0.4,0.3-0.5c0,0.1,0.1,0.2,0.1,0.2  c0.1,0.2,0.2,0.3,0.3,0.5c0.1,0.3,0.2,0.5,0.3,0.7c0.1,0.1,0.1,0.3,0.1,0.4C86.3,55,86.3,55,86.3,55.1z"></path></svg>