<?xml version="1.0" standalone="no"?>
<!DOCTYPE svg PUBLIC "-//W3C//DTD SVG 20010904//EN"
 "http://www.w3.org/TR/2001/REC-SVG-20010904/DTD/svg10.dtd">
<svg version="1.0" xmlns="http://www.w3.org/2000/svg"
 width="700.000000pt" height="700.000000pt" viewBox="0 0 700.000000 700.000000"
 preserveAspectRatio="xMidYMid meet">
<metadata>
Created by potrace 1.11, written by Peter Selinger 2001-2013
</metadata>
<g transform="translate(0.000000,700.000000) scale(0.100000,-0.100000)"
fill="#000000" stroke="none">
<path d="M1750 5226 c-150 -32 -260 -146 -300 -308 l-12 -47 -347 -3 c-389 -4
-402 -6 -484 -78 -81 -71 -157 -257 -177 -427 -24 -211 45 -473 153 -584 23
-24 68 -63 98 -85 134 -99 158 -300 60 -497 -36 -71 -36 -72 -84 -80 -64 -10
-92 -30 -117 -82 -17 -35 -19 -50 -11 -85 5 -23 17 -50 26 -60 16 -18 13 -26
-61 -167 l-77 -148 -42 -1 c-109 -2 -172 -132 -107 -221 l20 -28 -24 -47 c-54
-107 -69 -260 -38 -382 47 -182 200 -339 383 -391 235 -68 502 39 625 249 36
61 41 66 73 66 48 0 109 36 128 76 19 40 19 101 0 134 -8 14 -17 30 -20 37 -4
6 28 76 71 155 69 130 80 144 100 140 42 -8 110 34 133 82 27 54 26 73 -2 126
l-23 44 40 75 c52 94 111 155 184 189 l57 27 435 5 c416 5 438 6 493 27 85 32
145 70 203 127 69 70 95 118 163 303 32 88 74 185 93 214 90 139 248 243 441
289 45 11 88 20 95 20 9 0 12 -25 12 -92 0 -103 15 -147 61 -181 39 -28 106
-32 149 -9 58 32 74 72 78 189 l4 103 68 0 68 0 3 -108 c4 -91 7 -112 26 -138
64 -89 196 -80 245 17 14 25 18 58 18 132 l0 97 618 0 c654 0 714 -3 882 -50
103 -28 278 -116 379 -189 46 -33 98 -63 117 -67 44 -8 94 10 130 47 l29 30 3
572 c2 415 -1 579 -9 600 -26 62 -107 100 -169 79 -17 -6 -67 -38 -113 -71
-153 -111 -324 -182 -516 -215 -80 -14 -191 -16 -723 -16 l-628 0 0 95 c0 111
-13 152 -60 185 -73 52 -166 30 -207 -50 -19 -37 -23 -60 -23 -137 l0 -93 -69
0 -69 0 -4 103 c-4 122 -20 157 -86 188 -73 36 -148 11 -184 -62 -13 -25 -18
-58 -18 -128 l0 -93 -47 7 c-81 12 -194 53 -278 100 -142 80 -219 114 -285
125 -36 5 -169 10 -296 10 l-232 0 -11 48 c-42 167 -159 282 -315 311 -82 15
-624 13 -696 -3z m690 -303 c27 -25 36 -49 80 -223 27 -107 50 -196 50 -197 0
-2 -209 -3 -465 -3 -256 0 -465 1 -465 3 0 1 23 90 50 197 44 174 53 198 80
223 l30 27 305 0 305 0 30 -27z m-1087 -423 c-5 -72 -3 -84 21 -134 15 -31 45
-71 68 -90 77 -66 73 -66 663 -66 595 0 587 -1 668 70 66 59 91 124 84 222
l-5 78 206 0 c198 0 209 -1 259 -24 70 -33 100 -80 119 -187 17 -93 13 -190
-12 -277 -19 -67 -73 -124 -135 -141 -34 -9 -329 -11 -1257 -9 l-1214 3 -23
27 c-60 70 -96 242 -77 372 12 79 49 193 73 222 9 11 64 14 289 14 l278 0 -5
-80z m5157 -240 c0 -165 -3 -250 -10 -250 -6 0 -34 12 -63 27 -29 14 -83 38
-122 53 l-70 26 0 143 0 142 105 43 c58 23 114 47 125 54 11 6 23 12 28 12 4
0 7 -112 7 -250z m-2677 90 l77 -13 0 -78 c0 -44 -3 -79 -7 -79 -15 0 -138
-21 -155 -26 -15 -4 -17 6 -17 106 0 86 3 111 13 107 7 -3 47 -11 89 -17z
m2117 -91 l0 -82 -92 7 c-50 3 -347 6 -660 6 l-568 0 0 70 0 70 613 3 c336 1
633 3 660 5 l47 2 0 -81z m-1610 1 l0 -70 -70 0 -70 0 0 70 0 70 70 0 70 0 0
-70z m-2810 -812 c80 -222 106 -280 145 -326 l25 -30 -82 -84 c-59 -59 -97
-108 -131 -170 -26 -49 -50 -88 -53 -88 -7 0 -190 92 -341 171 l-131 70 43 92
c56 119 75 189 82 312 5 89 -2 160 -23 233 l-6 22 200 0 199 0 73 -202z m690
140 c32 -169 173 -338 281 -338 77 0 139 62 139 139 0 51 -17 85 -65 131 -37
35 -56 66 -69 108 l-7 22 284 0 284 0 -36 -97 c-21 -54 -48 -129 -61 -166 -28
-80 -78 -143 -134 -168 -38 -17 -73 -19 -421 -19 -349 0 -383 2 -420 19 -76
35 -102 75 -170 260 l-63 171 223 0 222 0 13 -62z m-1157 -974 c127 -64 234
-118 236 -120 3 -2 -135 -271 -146 -283 -4 -6 -472 232 -473 239 0 9 141 280
146 280 2 0 109 -52 237 -116z m-286 -541 c126 -64 230 -118 232 -120 9 -6
-19 -53 -55 -93 -58 -64 -105 -85 -194 -85 -88 0 -136 21 -193 84 -50 55 -67
101 -67 180 0 59 27 151 44 151 3 0 108 -52 233 -117z"/>
</g>
</svg>
